<svg xmlns="http://www.w3.org/2000/svg" xml:space="preserve" width="655.359" height="655.359" style="shape-rendering:geometricPrecision;text-rendering:geometricPrecision;image-rendering:optimizeQuality;fill-rule:evenodd;clip-rule:evenodd" viewBox="0 0 6.827 6.827"><defs><clipPath id="id0"><path d="M3.413 0a3.413 3.413 0 1 1 0 6.827 3.413 3.413 0 0 1 0-6.827z"/></clipPath><style>.fil5{fill:#424242}.fil12{fill:#bdbdbd}.fil1{fill:#ef6c00}.fil4{fill:#f6c4aa}.fil7{fill:#ffa726}.fil3{fill:#fdc}.fil13{fill:#212121;fill-rule:nonzero}</style></defs><g id="Layer_x0020_1"><path d="M3.413 0a3.413 3.413 0 1 1 0 6.827 3.413 3.413 0 0 1 0-6.827z" style="fill:#fb8c00"/><g style="clip-path:url(#id0)"><g id="_435557488"><path id="_4353207841" class="fil1" d="m3.948 2.93 3.787 3.787-.004.005-.004.006-.004.005-.005.006-.005.006-.006.006-.005.007-.007.006-.006.007-.007.007-.007.007-.007.008-.008.007-.008.007-.008.008-.009.008-.008.008-.01.007-.008.008-.01.008-.009.008-.01.008-.01.009-.01.008-.01.008-.01.008-.01.008-.01.008-.011.008-.01.007-.011.008-.011.008L3.69 3.163l.01-.007.011-.008.01-.008.011-.008.01-.008.011-.008.01-.008.01-.008.01-.008.01-.008.01-.008.01-.008.009-.008.009-.008.009-.008.008-.007.009-.008.008-.008.008-.007.007-.008L3.89 3l.007-.007.007-.007.006-.007.006-.007.006-.006.006-.006.005-.006.004-.006.005-.006.004-.005z"/><path id="_435320808" class="fil1" d="m4.947 3.96 3.786 3.786.005.006.005.006.004.005.004.007.004.006.003.006.003.007.002.007.002.007.002.007v.03l-.001.007-3.787-3.786.002-.008V4.024l-.002-.007-.002-.007-.002-.007-.003-.007-.003-.006-.004-.007-.004-.006-.005-.006-.004-.005z"/><path id="_435321840" class="fil1" d="m4.98 4.06 3.786 3.787-3.787-3.785V4.06z"/><path id="_430375856" class="fil1" d="M3.136 3.163 6.922 6.95l-.01-.008-.011-.008-.01-.007-.011-.008-.01-.008-.011-.008-.01-.008-.01-.008-.01-.008-.01-.008-.01-.009-.01-.008-.009-.008-.009-.008-.009-.007-.008-.008-.009-.008-.008-.008L6.74 6.8l-.007-.007-.008-.008L2.938 3l.007.007.008.008.008.007.008.008.009.008.008.007.01.008.008.008.01.008.009.008.01.008.01.008.01.008.01.008.01.008.01.008.01.008.011.008.01.008.011.008z"/><path id="_430375544" class="fil1" d="M4.223 5.02 8.01 8.807v.007L4.223 5.027z"/><path id="_430376216" class="fil1" d="M2.603 5.02 6.39 8.807h-.428l-.007-.001-.008-.001-.007-.002-.007-.001-.007-.002-.006-.003-.007-.003-.006-.003-.006-.003-.005-.004-.006-.004-.005-.004-3.787-3.787.006.005.005.004.006.004.006.003.006.003.007.003.006.002.007.002.007.002.007.002h.007l.008.001h.008z"/><path id="_430375520" class="fil1" d="M2.793 2.641 6.58 6.427H6.562l-.005-.002-.004-.001-.005-.002-.004-.002-.005-.002-.004-.003-.005-.002-.004-.003-.005-.004-.004-.003-.004-.004-.005-.004-3.786-3.787.004.005.005.003.004.004.005.003.004.003.004.003.005.003.004.002.005.002.004.002h.005l.005.002h.004l.004.001h.005z"/><path id="_430375568" class="fil1" d="m4.491 3.805 3.787 3.787.004.005.005.006.005.006.004.006.005.007.004.007.005.007.004.008.004.008.004.008.005.008.004.01.004.008.004.01-3.786-3.787-.004-.009-.005-.009-.004-.009-.004-.008-.004-.009-.004-.008-.005-.007-.004-.008-.005-.007-.004-.006-.005-.007-.004-.006-.005-.005z"/><path id="_430375664" class="fil1" d="M3.69 3.163 7.478 6.95v.113L3.69 3.277z"/><path id="_430375688" class="fil1" d="m3.937 1.674 3.786 3.787.014.016.012.017.012.019.01.02.011.02.01.023.008.023.008.025.007.026.006.027.006.028.005.03.004.03.003.033.003.034.002.035v.036l.001.038v.079l-.002.042-.002.043L4.055 2.32l.002-.043.001-.042.001-.04v-.077l-.002-.036-.002-.035-.002-.034-.004-.032-.004-.031-.005-.03-.005-.029-.006-.027-.007-.026-.008-.024-.009-.024-.01-.022-.01-.02-.01-.02-.012-.02-.013-.016z"/><path id="_430375784" class="fil1" d="M4.055 2.319 7.84 6.105V6.124l.001.004v.014L4.056 2.356V2.328l-.001-.004z"/><path id="_430375880" class="fil1" d="m4.156 2.348 3.787 3.787.003.003.003.004.003.005.003.004.002.005.003.005.002.006.001.005.002.006.001.006.002.007v.006l.001.007v.007l.001.006v.022l-.001.008-.001.007-.001.008-.002.008-.002.007-.002.008-.002.008-.002.008L4.17 2.515l.003-.008.002-.008.002-.008.002-.008.001-.007.002-.008V2.46l.001-.007V2.41l-.002-.007v-.006l-.002-.006-.002-.006-.002-.005-.002-.006-.002-.005-.003-.005-.002-.005-.003-.004-.003-.004z"/><path id="_430376072" class="fil1" d="M4.17 2.515 7.957 6.3l-.003.008-.003.007-.003.008-.003.007-.003.007-.004.007-.004.006-.003.007-.004.006-.004.006-.004.005-.005.006-.004.005-.005.005-.004.004-.005.005-.004.004-.005.003-.005.004-.005.003-.004.003-.005.002-.005.003-.005.002-.005.001-.005.001-.005.001H7.825l-.005-.002L4.034 2.64l.004.001h.005l.005.001H4.057l.005-.001.005-.001.005-.002.005-.002.004-.002.005-.002.005-.003.005-.003.005-.004.004-.004.005-.004.005-.004.004-.005.005-.005.004-.005.004-.005.004-.006.004-.006.004-.006.004-.006.004-.007.003-.006.004-.007.003-.008.003-.007.003-.008z"/><path id="_430376576" class="fil1" d="M4.034 2.64 7.82 6.424l-.002.014-.003.014-.003.014-.002.013-.003.013-.003.013-.003.012-.003.013-.003.012-.003.011-.003.012-.003.01-.003.011-.003.01-.003.01-.003.01-.003.01-.003.009-.003.009-.002.008-.003.008-.003.007-.003.007-.002.007-.003.006-.002.005-.002.005-.003.005-.002.004-.002.004-.002.003-.001.003-3.787-3.786.002-.003.002-.003.002-.004.002-.004.002-.005.003-.005.002-.006.003-.006.002-.006.003-.007.003-.008.002-.007.003-.009.003-.008.003-.01.003-.009.003-.01.003-.01.003-.01.003-.01.003-.012.003-.011.003-.012.003-.012.003-.012.003-.013.003-.012.002-.013.003-.014.003-.013.002-.014z"/><path id="_430376528" class="fil1" d="m3.69 3.277 3.787 3.786v.085L3.69 3.36z"/><path id="_430376672" class="fil1" d="m4.98 4.062 3.785 3.786-.184.806-.001.008-.002.008-.003.007-.002.007-.003.008-.002.007-.003.007-.003.007-.004.006-.003.007-.004.006-.004.006-.004.006-.004.006-.005.006-.004.005-.005.005-.005.005-.005.005-.006.004-.005.004-.006.004-.006.003-.006.003-.007.003-.006.003-.007.002-.007.001-.007.002h-.007l-.008.001h-.428L4.224 5.02h.435l.008-.001.007-.002.007-.002.007-.002.006-.002.006-.003.007-.003.006-.003.005-.004.006-.004.005-.005.006-.004.005-.005.005-.005.004-.005.005-.006.004-.006.004-.006.004-.006.004-.006.003-.007.003-.007.003-.006.003-.007.003-.008.003-.007.002-.007.002-.008.002-.007.002-.008z"/><path id="_430376600" class="fil1" d="m4.678 5.033 3.786 3.786.002.003.002.003.001.004V8.935l-.001.004-.002.003-.002.003-.003.002-.003.002-.004.001H5.93l-.003-.001-.003-.002-.003-.002-3.787-3.786.003.002.003.002h.004l.004.001h2.521l.004-.001.003-.002.003-.002.002-.003.002-.003v-.004l.001-.004V5.042l-.001-.003-.002-.003z"/><path id="_430376912" class="fil1" d="M5.275 5.164 9.06 8.951v.115L5.275 5.28z"/><path id="_430376888" class="fil1" d="M5.275 5.28 9.06 9.066H5.338L1.552 5.28z"/><path id="_435557296" class="fil1" d="M3.69 3.361c.561.247.724.375.791.435.027.023.05.063.072.113h.274c.083 0 .17.07.152.152l-.184.807c-.018.082-.068.152-.152.152h-.42v.007h.441c.01 0 .02.009.02.02v.098c0 .01-.01.02-.02.02H2.147a.019.019 0 0 1-.019-.02v-.099c0-.01.008-.019.019-.019h.456V5.02h-.42c-.083 0-.133-.07-.152-.152l-.183-.806V4.06c-.018-.081.068-.152.152-.152h.274a.316.316 0 0 1 .071-.113c.067-.06.235-.19.791-.435v-.198a1.224 1.224 0 0 1-.258-.232 1.047 1.047 0 0 1-.085-.29c-.046.004-.1-.049-.126-.126-.028-.085-.01-.166.038-.182a.063.063 0 0 1 .043.002c-.034-.33.063-.602.327-.725.161-.075.473-.079.681-.036.24.05.325.277.299.745l.001.037c.025-.022.052-.031.076-.023.05.016.066.097.038.182-.027.083-.088.138-.136.124-.026.15-.068.266-.086.292a1.224 1.224 0 0 1-.257.232v.198zM1.553 5.164h3.723v.116H1.552v-.116z"/></g></g><path d="M3.413 0a3.413 3.413 0 1 1 0 6.827 3.413 3.413 0 0 1 0-6.827z" style="fill:none"/><path class="fil3" d="M3.155 3.352c-.57.25-.742.384-.81.444-.104.092-.162.436-.223.729h2.583c-.061-.293-.12-.637-.224-.73-.067-.059-.232-.189-.803-.44l-.523-.003z"/><path class="fil3" d="M3.69 2.853v.633c-.152.187-.401.18-.554 0v-.633c0-.341.555-.341.555 0z"/><path class="fil4" d="M3.69 2.853v.424a.532.532 0 0 1-.277.12.532.532 0 0 1-.277-.12v-.424c0-.341.555-.341.555 0z"/><path class="fil3" d="M2.705 2.333c.049-.016.11.039.139.123.027.085.01.166-.038.182-.05.017-.111-.039-.14-.123-.027-.085-.01-.166.039-.182zM4.132 2.333c-.048-.016-.11.039-.138.123-.028.085-.011.166.038.182.049.017.11-.039.138-.123.028-.085.011-.166-.038-.182z"/><path class="fil3" d="M3.413 1.717c-.93 0-.595 1.124-.535 1.214.067.099.385.36.535.36.15 0 .468-.261.535-.36.061-.09.396-1.214-.535-1.214z"/><path class="fil5" d="M3.203 1.97c-.156-.103-.357.287-.41.604-.115-.435-.043-.813.282-.964.161-.075.473-.079.681-.036.273.056.345.343.282.952-.058-.258-.26-.662-.414-.555a.372.372 0 0 1-.421 0z"/><path class="fil4" d="M3.115 2.832a.818.818 0 0 0 .597 0c-.065.169-.504.17-.597 0z"/><path d="M2.94 3.452c-.401.189-.536.295-.595.347-.104.092-.162.436-.223.728h2.583c-.061-.292-.12-.636-.224-.728-.056-.05-.18-.149-.55-.325-.002.003-.006.005-.007.008a.762.762 0 0 1-.463.409c-.255-.05-.474-.248-.508-.421l-.013-.018z" style="fill:#66bb6a"/><path class="fil7" d="M2.28 3.9c-.066.147-.111.403-.158.627h.524c-.012-.366-.012-.561-.366-.628zM4.547 3.9c.066.147.11.403.158.627h-.524c.011-.366.012-.561.366-.628zM2.94 3.452a6.781 6.781 0 0 0-.107.052.866.866 0 0 0 .628.486.871.871 0 0 0 .562-.472 6.416 6.416 0 0 0-.091-.044c-.003.003-.007.005-.008.008a.762.762 0 0 1-.463.409c-.255-.05-.474-.248-.508-.421l-.013-.018z"/><path style="fill:#795548" d="M1.552 5.164h3.722v.116H1.552z"/><rect x="2.128" y="5.027" width="2.555" height=".137" rx=".019" ry=".019" style="fill:#616161"/><path d="M4.643 5.02c.084 0 .134-.07.152-.152l.184-.806c.019-.082-.068-.153-.152-.153H2c-.084 0-.171.071-.152.153l.183.806c.02.082.069.152.153.152h2.459z" style="fill:#b0b0b0"/><path d="M4.98 4.06c.017-.08-.07-.15-.153-.15H2c-.084 0-.17.07-.153.15H4.98z" style="fill:#a8a8a8"/><path class="fil5" d="M2.603 5.018h.235v.014h-.235zM3.988 5.018h.235v.014h-.235zM2.252 5.057h.274v.078h-.274z"/><path class="fil12" d="M2.271 5.069h.03v.053h-.03zM2.319 5.069h.03v.053h-.03zM2.367 5.069h.03v.053h-.03zM2.414 5.069h.03v.053h-.03zM2.462 5.069h.03v.053h-.03z"/><path class="fil5" d="M4.286 5.066h.274v.06h-.274z"/><path class="fil12" d="M4.323 5.076h.2v.04h-.2z"/><circle class="fil12" cx="4.303" cy="5.096" r=".006"/><circle class="fil12" cx="4.541" cy="5.096" r=".006"/><path class="fil13" d="M4.303 5.088a.007.007 0 1 1 0 .015.007.007 0 0 1 0-.015zm.003.004a.005.005 0 0 0-.008.004.005.005 0 1 0 .008-.004zM4.541 5.088a.007.007 0 1 1 0 .015.007.007 0 0 1 0-.015zm.003.004a.005.005 0 0 0-.008.004.005.005 0 1 0 .008-.004z"/><path class="fil12" d="M2.64 5.073h.4v.009h-.4zM2.64 5.091h.4V5.1h-.4zM2.64 5.109h.4v.009h-.4zM3.771 5.073h.4v.009h-.4zM3.771 5.091h.4V5.1h-.4zM3.771 5.109h.4v.009h-.4zM3.413 4.334c.118 0 .213.073.213.162 0 .09-.095.188-.213.188-.117 0-.212-.098-.212-.188s.095-.162.212-.162z"/></g></svg>